<svg width="50" height="50" viewBox="0 0 50 50" fill="none" xmlns="http://www.w3.org/2000/svg">
<circle opacity="0.5" cx="25" cy="25" r="24.5" fill="black" fill-opacity="0.2" stroke="white"/>
<path d="M38.5722 24.7812C38.0029 24.7812 37.5409 24.3192 37.5409 23.7499C37.5409 19.8009 36.0039 16.0898 33.2125 13.2972C32.8097 12.8944 32.8097 12.2413 33.2125 11.8384C33.6153 11.4356 34.2684 11.4356 34.6715 11.8384C37.8519 15.0201 39.6034 19.2511 39.6034 23.7499C39.6034 24.3192 39.1414 24.7812 38.5722 24.7812Z" fill="white"/>
<path d="M10.3848 24.7811C9.81551 24.7811 9.35352 24.3191 9.35352 23.7499C9.35352 19.251 11.1053 15.02 14.2869 11.8397C14.6898 11.4368 15.3431 11.4368 15.746 11.8397C16.1488 12.2425 16.1488 12.8958 15.746 13.2987C12.9533 16.0898 11.416 19.8009 11.416 23.7499C11.416 24.3191 10.954 24.7811 10.3848 24.7811Z" fill="white"/>
<path d="M24.4786 43C21.6351 43 19.3224 40.6872 19.3224 37.8438C19.3224 37.2745 19.7844 36.8125 20.3536 36.8125C20.9229 36.8125 21.3849 37.2745 21.3849 37.8438C21.3849 39.5502 22.7721 40.9375 24.4786 40.9375C26.1849 40.9375 27.5724 39.5502 27.5724 37.8438C27.5724 37.2745 28.0344 36.8125 28.6036 36.8125C29.1729 36.8125 29.6349 37.2745 29.6349 37.8438C29.6349 40.6872 27.3221 43 24.4786 43Z" fill="white"/>
<path d="M35.8223 38.875H13.1348C11.8078 38.875 10.7284 37.7957 10.7284 36.4688C10.7284 35.7646 11.0351 35.0979 11.5701 34.64C13.6613 32.8731 14.8534 30.3047 14.8534 27.5836V23.7499C14.8534 18.4426 19.171 14.125 24.4786 14.125C29.7859 14.125 34.1035 18.4426 34.1035 23.7499V27.5836C34.1035 30.3047 35.2956 32.8731 37.3732 34.6304C37.9218 35.0979 38.2285 35.7646 38.2285 36.4688C38.2285 37.7957 37.1492 38.875 35.8223 38.875ZM24.4786 16.1875C20.308 16.1875 16.9159 19.5796 16.9159 23.7499V27.5836C16.9159 30.9123 15.4572 34.0556 12.9148 36.2047C12.8667 36.246 12.7909 36.3314 12.7909 36.4688C12.7909 36.6556 12.9478 36.8125 13.1348 36.8125H35.8223C36.0092 36.8125 36.166 36.6556 36.166 36.4688C36.166 36.3314 36.0905 36.246 36.0449 36.2075C33.4998 34.0556 32.041 30.9123 32.041 27.5836V23.7499C32.041 19.5796 28.6489 16.1875 24.4786 16.1875Z" fill="white"/>
<path d="M24.4786 16.1875C23.9094 16.1875 23.4474 15.7255 23.4474 15.1562V11.0312C23.4474 10.462 23.9094 10 24.4786 10C25.0479 10 25.5099 10.462 25.5099 11.0312V15.1562C25.5099 15.7255 25.0479 16.1875 24.4786 16.1875Z" fill="white"/>
</svg>
