<svg width="48" height="54" viewBox="0 0 48 54" fill="none" xmlns="http://www.w3.org/2000/svg">
<path d="M21.2974 9.21053L8.5012 1H3.09592L1 4.94105V50.3726L4.7506 53H8.5012L21.2974 45.7747L32.5492 39.9726L44.0216 33.6232L47 28.8063V23.7705L36.8513 17.64L21.2974 9.21053Z" fill="#FCDE26" stroke="#FCDE26"/>
<path d="M25.7209 33.8944L22.7608 37.8556L21.5947 38.2958L19.8007 39H17.9169L16.3023 38.2958L14.6877 36.9754L12.9834 34.6866L11.3688 32.3979L10.0233 30.4613L9.75415 28.6127L10.7409 27.2923V23.9472L9.21595 23.0669L8.31894 22.1866L7.96013 23.0669V24.2993L8.31894 25.4437L8.67774 26.5L7.96013 27.5563H6.79402H5.89701L5.3588 26.7641L5 25.7958L5.89701 24.6514L6.16611 22.5387L6.43522 20.162L18.9037 14L20.2492 14.7923L32 20.6021L30.0266 22.5387L26.9767 23.507V25.7958L27.7841 28.2606V30.9894L25.7209 33.8944Z" fill="#253957" stroke="#253957"/>
<path d="M18.4231 17L9 21.2241L9.76923 22.2586L11.0192 21.9138L14.7692 20.3621H23.5192L26.6923 21.9138H28.4231L29 20.9655C27.2692 20.1897 23.75 18.6207 23.5192 18.5517C23.2885 18.4828 20.9872 17.4885 19.8654 17H18.4231Z" fill="#FCDE26"/>
<path d="M14.7692 21.9138L12.2692 23.3793V25.4483L13.2308 25.1897L14.2885 24.6724H23.9038L24.5769 25.1897H25.9231V23.3793L24.1923 22.5172L21.5 21.6552H16.2115L14.7692 21.9138Z" fill="#FCDE26"/>
<path d="M12.2692 27.431L11.0192 29.5L13.5192 32.1724L15.7308 35.5345L17.9423 37H20.6346L21.7885 36.3103L24.9615 32.1724L26.6923 30.3621V28.8103L24.9615 26.7414H23.5192H17.9423H14.2885L12.2692 27.431Z" fill="#FCDE26"/>
<path d="M18.4231 17L9 21.2241L9.76923 22.2586L11.0192 21.9138L14.7692 20.3621H23.5192L26.6923 21.9138H28.4231L29 20.9655C27.2692 20.1897 23.75 18.6207 23.5192 18.5517C23.2885 18.4828 20.9872 17.4885 19.8654 17H18.4231Z" stroke="#FCDE26"/>
<path d="M14.7692 21.9138L12.2692 23.3793V25.4483L13.2308 25.1897L14.2885 24.6724H23.9038L24.5769 25.1897H25.9231V23.3793L24.1923 22.5172L21.5 21.6552H16.2115L14.7692 21.9138Z" stroke="#FCDE26"/>
<path d="M12.2692 27.431L11.0192 29.5L13.5192 32.1724L15.7308 35.5345L17.9423 37H20.6346L21.7885 36.3103L24.9615 32.1724L26.6923 30.3621V28.8103L24.9615 26.7414H23.5192H17.9423H14.2885L12.2692 27.431Z" stroke="#FCDE26"/>
</svg>
