<svg width="50" height="39" viewBox="0 0 50 39" fill="none" xmlns="http://www.w3.org/2000/svg">
    <path d="M47.734 6.05476C46.7484 5.02217 45.3872 4.412 43.8383 4.412H36.047V4.31812C36.047 3.14472 35.5776 2.01825 34.7797 1.26728C33.9818 0.469361 32.9022 0 31.7288 0H17.648C16.4276 0 15.3481 0.469361 14.5502 1.26728C13.7523 2.06519 13.2829 3.14472 13.2829 4.31812V4.412H5.53846C3.98957 4.412 2.62842 5.02217 1.64276 6.05476C0.657106 7.04042 0 8.4485 0 9.95046V33.3247C0 34.8735 0.61017 36.2347 1.64276 37.2204C2.62842 38.206 4.03651 38.8631 5.53846 38.8631H43.8383C45.3872 38.8631 46.7484 38.2529 47.734 37.2204C48.7197 36.2347 49.3768 34.8266 49.3768 33.3247V9.95046C49.3768 8.40157 48.7666 7.04042 47.734 6.05476ZM46.9361 33.3247H46.8892C46.8892 34.1695 46.5606 34.9205 45.9974 35.4837C45.4342 36.047 44.6832 36.3755 43.8383 36.3755H5.53846C4.69361 36.3755 3.94264 36.047 3.3794 35.4837C2.81617 34.9205 2.48762 34.1695 2.48762 33.3247V9.95046C2.48762 9.10561 2.81617 8.35463 3.3794 7.7914C3.94264 7.22816 4.69361 6.89961 5.53846 6.89961H14.5971C15.3012 6.89961 15.8644 6.33638 15.8644 5.63234V4.27119C15.8644 3.75489 16.0522 3.28553 16.3807 2.95698C16.7093 2.62842 17.1786 2.44068 17.6949 2.44068H31.7288C32.2451 2.44068 32.7145 2.62842 33.043 2.95698C33.3716 3.28553 33.5593 3.75489 33.5593 4.27119V5.63234C33.5593 6.33638 34.1226 6.89961 34.8266 6.89961H43.8853C44.7301 6.89961 45.4811 7.22816 46.0443 7.7914C46.6076 8.35463 46.9361 9.10561 46.9361 9.95046V33.3247Z" fill="#ECECEC"/>
    <path d="M24.6884 10.0913C21.4967 10.0913 18.5867 11.4055 16.5215 13.4707C14.4094 15.5828 13.1421 18.4459 13.1421 21.6375C13.1421 24.8292 14.4563 27.7392 16.5215 29.8044C18.6336 31.9166 21.4967 33.1838 24.6884 33.1838C27.88 33.1838 30.7901 31.8696 32.8553 29.8044C34.9674 27.6923 36.2347 24.8292 36.2347 21.6375C36.2347 18.4459 34.9205 15.5359 32.8553 13.4707C30.7901 11.4055 27.88 10.0913 24.6884 10.0913ZM31.0717 28.0678C29.4289 29.6636 27.176 30.6962 24.6884 30.6962C22.2008 30.6962 19.9478 29.6636 18.3051 28.0678C16.6623 26.425 15.6766 24.1721 15.6766 21.6845C15.6766 19.1969 16.7092 16.9439 18.3051 15.3012C19.9478 13.6584 22.2008 12.6727 24.6884 12.6727C27.176 12.6727 29.4289 13.7053 31.0717 15.3012C32.7145 16.9439 33.7001 19.1969 33.7001 21.6845C33.7471 24.1721 32.7145 26.425 31.0717 28.0678Z" fill="#ECECEC"/>
    <path d="M41.3978 14.6441C42.668 14.6441 43.6976 13.6144 43.6976 12.3442C43.6976 11.074 42.668 10.0443 41.3978 10.0443C40.1276 10.0443 39.0979 11.074 39.0979 12.3442C39.0979 13.6144 40.1276 14.6441 41.3978 14.6441Z" fill="#ECECEC"/>
</svg>
