<svg width="43" height="43" viewBox="0 0 43 43" fill="none" xmlns="http://www.w3.org/2000/svg">
<rect x="1.07498" width="41.925" height="41.925" rx="10" fill="white"/>
<path d="M35.3074 43H7.69263C3.45092 43 0 39.5491 0 35.3074V7.69255C0 3.45092 3.45092 0 7.69263 0H35.3075C39.5491 0 43 3.45092 43 7.69263V35.3074C43 39.5491 39.5491 43 35.3074 43ZM40.4805 7.69263C40.4805 4.84019 38.1598 2.51953 35.3074 2.51953H7.69263C4.84019 2.51953 2.51953 4.84019 2.51953 7.69263V35.3074C2.51953 38.1598 4.84019 40.4805 7.69263 40.4805H35.3075C38.1598 40.4805 40.4805 38.1598 40.4805 35.3074V7.69263Z" fill="black"/>
<path d="M36.3428 33.5545H17.1557C16.6282 35.1212 15.1463 36.2532 13.4039 36.2532C11.6616 36.2532 10.1797 35.1212 9.65219 33.5545H6.65723C5.9615 33.5545 5.39746 32.9905 5.39746 32.2947C5.39746 31.599 5.9615 31.035 6.65723 31.035H9.65228C10.1798 29.4682 11.6617 28.3363 13.404 28.3363C15.1464 28.3363 16.6283 29.4682 17.1558 31.035H36.3429C37.0387 31.035 37.6027 31.599 37.6027 32.2947C37.6027 32.9905 37.0387 33.5545 36.3428 33.5545V33.5545ZM13.4039 30.8558C12.6105 30.8558 11.965 31.5013 11.965 32.2947C11.965 33.0881 12.6105 33.7336 13.4039 33.7336C14.1973 33.7336 14.8428 33.0881 14.8428 32.2947C14.8428 31.5013 14.1973 30.8558 13.4039 30.8558Z" fill="black"/>
<path d="M36.3428 22.7598H33.3478C32.8203 24.3265 31.3383 25.4584 29.596 25.4584C27.8538 25.4584 26.3719 24.3265 25.8444 22.7598H6.65723C5.9615 22.7598 5.39746 22.1957 5.39746 21.5C5.39746 20.8043 5.9615 20.2402 6.65723 20.2402H25.8444C26.3719 18.6735 27.8539 17.5416 29.5961 17.5416C31.3384 17.5416 32.8204 18.6735 33.3479 20.2402H36.3429C37.0387 20.2402 37.6027 20.8043 37.6027 21.5C37.6027 22.1957 37.0387 22.7598 36.3428 22.7598ZM29.5961 20.0611C28.8027 20.0611 28.1572 20.7066 28.1572 21.5C28.1572 22.2934 28.8027 22.9389 29.5961 22.9389C30.3895 22.9389 31.035 22.2934 31.035 21.5C31.035 20.7066 30.3895 20.0611 29.5961 20.0611Z" fill="black"/>
<path d="M36.3428 11.965H22.5531C22.0256 13.5317 20.5437 14.6636 18.8014 14.6636C17.059 14.6636 15.5771 13.5317 15.0496 11.965H6.65723C5.9615 11.965 5.39746 11.4009 5.39746 10.7052C5.39746 10.0095 5.9615 9.44544 6.65723 9.44544H15.0496C15.5771 7.87871 17.059 6.74677 18.8014 6.74677C20.5437 6.74677 22.0256 7.87871 22.5531 9.44544H36.3429C37.0387 9.44544 37.6027 10.0095 37.6027 10.7052C37.6027 11.4009 37.0387 11.965 36.3428 11.965ZM18.8014 9.26621C18.008 9.26621 17.3625 9.91172 17.3625 10.7051C17.3625 11.4985 18.008 12.144 18.8014 12.144C19.5948 12.144 20.2403 11.4986 20.2403 10.7052C20.2403 9.9118 19.5948 9.26621 18.8014 9.26621V9.26621Z" fill="black"/>
</svg>
