<svg width="50" height="50" viewBox="0 0 50 50" fill="none" xmlns="http://www.w3.org/2000/svg">
<g opacity="0.5">
<circle cx="25" cy="25" r="24.5" fill="black" fill-opacity="0.2" style="mix-blend-mode:multiply"/>
<circle cx="25" cy="25" r="24.5" stroke="white"/>
</g>
<path d="M15.8337 41.2923C15.4503 41.2923 15.0695 41.1726 14.7445 40.9376C14.1391 40.4989 13.8563 39.7448 14.0211 39.0171L16.2728 29.0986L8.6366 22.4019C8.07529 21.9119 7.86086 21.1359 8.09131 20.4258C8.32176 19.7171 8.94876 19.2154 9.69112 19.1467L19.7947 18.2295L23.7893 8.88134C24.0838 8.19452 24.7546 7.75098 25.4999 7.75098C26.2452 7.75098 26.916 8.19452 27.2105 8.87974L31.2051 18.2295L41.3071 19.1467C42.051 19.2137 42.678 19.7171 42.9085 20.4258C43.1389 21.1345 42.9258 21.9119 42.3645 22.4019L34.7284 29.0973L36.98 39.0155C37.1451 39.7448 36.862 40.4989 36.2569 40.9363C35.6531 41.3737 34.848 41.4073 34.2122 41.0252L25.4999 35.8188L16.7876 41.0282C16.4931 41.2031 16.1649 41.2923 15.8337 41.2923ZM25.4999 33.576C25.831 33.576 26.1589 33.6649 26.4538 33.8398L34.676 38.7576L32.551 29.3961C32.3993 28.7298 32.6255 28.0342 33.1403 27.5834L40.3506 21.26L30.8112 20.3938C30.1244 20.331 29.5337 19.8992 29.2654 19.2664L25.4999 10.4446L21.7299 19.2677C21.4645 19.8963 20.8738 20.3281 20.1886 20.3908L10.6479 21.2571L17.8579 27.5805C18.3743 28.0326 18.6002 28.7269 18.4472 29.3948L16.3238 38.756L24.546 33.8398C24.8406 33.6649 25.1688 33.576 25.4999 33.576ZM19.7175 18.4102C19.7175 18.4102 19.7175 18.4118 19.7159 18.4132L19.7175 18.4102ZM31.2794 18.406L31.281 18.4089C31.281 18.4073 31.281 18.4073 31.2794 18.406Z" fill="white"/>
</svg>
